<svg width="109" height="25" viewBox="0 0 109 25" fill="none" xmlns="http://www.w3.org/2000/svg">
<path d="M1.30518 11C1.30518 5.75701 5.59027 1.5 10.8845 1.5H98.3283C103.623 1.5 107.908 5.75701 107.908 11C107.908 16.243 103.623 20.5 98.3283 20.5H10.8845C5.59028 20.5 1.30518 16.243 1.30518 11Z" fill="url(#paint0_linear_619_438)" stroke="#EFEFEF"/>
<path d="M17.4067 15.1252V6.98798H19.5841C20.8283 6.98798 21.7988 7.32392 22.4956 7.9958C23.1923 8.66767 23.5407 9.67549 23.5407 11.0192C23.5407 12.3713 23.1965 13.3957 22.508 14.0925C21.8195 14.7809 20.8698 15.1252 19.6588 15.1252H17.4067ZM18.85 13.9556H19.4846C20.3057 13.9556 20.9403 13.7192 21.3882 13.2464C21.8361 12.7653 22.0601 12.0229 22.0601 11.0192C22.0601 10.0239 21.8361 9.29808 21.3882 8.84186C20.9403 8.38565 20.3057 8.15755 19.4846 8.15755H18.85V13.9556ZM26.5393 15.2745C26.0084 15.2745 25.5729 15.1086 25.2328 14.7768C24.901 14.445 24.7352 14.0137 24.7352 13.4828C24.7352 12.8275 25.0213 12.3215 25.5937 11.9648C26.166 11.5999 27.0784 11.351 28.3309 11.2183C28.3226 10.8948 28.2355 10.6169 28.0697 10.3847C27.912 10.1441 27.6259 10.0239 27.2111 10.0239C26.9125 10.0239 26.6181 10.0819 26.3277 10.1981C26.0457 10.3142 25.7679 10.4552 25.4941 10.6211L24.9716 9.66305C25.3116 9.44738 25.6932 9.26075 26.1162 9.10315C26.5476 8.94555 27.0038 8.86675 27.4849 8.86675C28.248 8.86675 28.8162 9.09485 29.1894 9.55107C29.571 9.99898 29.7618 10.6501 29.7618 11.5045V15.1252H28.5798L28.4802 14.4533H28.4305C28.1567 14.6855 27.8623 14.8805 27.5471 15.0381C27.2402 15.1957 26.9042 15.2745 26.5393 15.2745ZM26.9996 14.1547C27.2485 14.1547 27.4724 14.0966 27.6715 13.9805C27.8789 13.8561 28.0987 13.6902 28.3309 13.4828V12.1142C27.5015 12.222 26.925 12.3837 26.6015 12.5994C26.278 12.8068 26.1162 13.0639 26.1162 13.3708C26.1162 13.6445 26.1992 13.8436 26.3651 13.968C26.531 14.0925 26.7425 14.1547 26.9996 14.1547ZM33.4322 15.2745C32.7272 15.2745 32.2253 15.0712 31.9267 14.6648C31.6364 14.2501 31.4912 13.715 31.4912 13.0598V10.1483H30.6203V9.07826L31.5659 9.01605L31.7401 7.34881H32.9345V9.01605H34.4898V10.1483H32.9345V13.0598C32.9345 13.7731 33.2207 14.1298 33.793 14.1298C33.9009 14.1298 34.0129 14.1173 34.129 14.0925C34.2451 14.0593 34.3446 14.0261 34.4276 13.9929L34.6764 15.0505C34.5105 15.1086 34.3198 15.1583 34.1041 15.1998C33.8967 15.2496 33.6728 15.2745 33.4322 15.2745ZM36.9887 15.2745C36.4579 15.2745 36.0224 15.1086 35.6823 14.7768C35.3505 14.445 35.1846 14.0137 35.1846 13.4828C35.1846 12.8275 35.4708 12.3215 36.0431 11.9648C36.6155 11.5999 37.5279 11.351 38.7804 11.2183C38.7721 10.8948 38.685 10.6169 38.5191 10.3847C38.3615 10.1441 38.0753 10.0239 37.6606 10.0239C37.362 10.0239 37.0675 10.0819 36.7772 10.1981C36.4952 10.3142 36.2173 10.4552 35.9436 10.6211L35.421 9.66305C35.7611 9.44738 36.1427 9.26075 36.5657 9.10315C36.997 8.94555 37.4532 8.86675 37.9343 8.86675C38.6975 8.86675 39.2656 9.09485 39.6389 9.55107C40.0205 9.99898 40.2113 10.6501 40.2113 11.5045V15.1252H39.0292L38.9297 14.4533H38.8799C38.6062 14.6855 38.3117 14.8805 37.9965 15.0381C37.6896 15.1957 37.3537 15.2745 36.9887 15.2745ZM37.4491 14.1547C37.6979 14.1547 37.9219 14.0966 38.121 13.9805C38.3283 13.8561 38.5481 13.6902 38.7804 13.4828V12.1142C37.9509 12.222 37.3744 12.3837 37.0509 12.5994C36.7274 12.8068 36.5657 13.0639 36.5657 13.3708C36.5657 13.6445 36.6486 13.8436 36.8145 13.968C36.9804 14.0925 37.192 14.1547 37.4491 14.1547ZM43.6282 15.2745C43.2134 15.2745 42.7987 15.1957 42.384 15.0381C41.9692 14.8722 41.6125 14.6689 41.3139 14.4284L41.9858 13.5077C42.2595 13.715 42.5333 13.8809 42.807 14.0054C43.0807 14.1298 43.371 14.192 43.6779 14.192C44.0097 14.192 44.2544 14.1215 44.412 13.9805C44.5696 13.8395 44.6484 13.6653 44.6484 13.4579C44.6484 13.2837 44.5821 13.1427 44.4494 13.0349C44.3249 12.9187 44.1632 12.8192 43.9641 12.7363C43.765 12.645 43.5577 12.5579 43.342 12.475C43.0766 12.3754 42.8111 12.2552 42.5457 12.1142C42.2886 11.9648 42.0771 11.7782 41.9112 11.5543C41.7453 11.322 41.6623 11.0358 41.6623 10.6957C41.6623 10.1566 41.8614 9.71696 42.2595 9.37688C42.6577 9.03679 43.1968 8.86675 43.877 8.86675C44.3083 8.86675 44.6941 8.9414 45.0341 9.09071C45.3742 9.24001 45.6687 9.41006 45.9175 9.60083L45.2581 10.4718C45.0424 10.3142 44.8226 10.1898 44.5987 10.0985C44.383 9.99898 44.1549 9.94922 43.9143 9.94922C43.6074 9.94922 43.3793 10.0156 43.23 10.1483C43.0807 10.2727 43.0061 10.4303 43.0061 10.6211C43.0061 10.8616 43.1305 11.0441 43.3793 11.1685C43.6282 11.293 43.9185 11.4132 44.2503 11.5294C44.5323 11.6289 44.806 11.7533 45.0715 11.9026C45.3369 12.0436 45.5567 12.2303 45.7309 12.4625C45.9134 12.6948 46.0046 13.0017 46.0046 13.3833C46.0046 13.9058 45.8014 14.3537 45.395 14.727C44.9885 15.092 44.3996 15.2745 43.6282 15.2745ZM49.8948 15.2745C49.3308 15.2745 48.8207 15.15 48.3645 14.9012C47.9082 14.6441 47.5474 14.2791 47.282 13.8063C47.0166 13.3252 46.8838 12.7487 46.8838 12.0768C46.8838 11.4132 47.0166 10.8409 47.282 10.3598C47.5557 9.87871 47.9082 9.50959 48.3396 9.25245C48.7709 8.99532 49.223 8.86675 49.6958 8.86675C50.2515 8.86675 50.716 8.99117 51.0893 9.24001C51.4626 9.48056 51.7446 9.82065 51.9354 10.2603C52.1261 10.6916 52.2215 11.1934 52.2215 11.7658C52.2215 12.0644 52.2008 12.2966 52.1593 12.4625H48.2774C48.3437 13.0017 48.5386 13.4206 48.8621 13.7192C49.1856 14.0178 49.5921 14.1671 50.0815 14.1671C50.3469 14.1671 50.5916 14.1298 50.8156 14.0551C51.0478 13.9722 51.2759 13.8602 51.4999 13.7192L51.9851 14.615C51.6948 14.8058 51.3713 14.9634 51.0146 15.0878C50.658 15.2122 50.2847 15.2745 49.8948 15.2745ZM48.2649 11.492H50.9773C50.9773 11.0192 50.8736 10.6501 50.6663 10.3847C50.4589 10.111 50.1478 9.9741 49.7331 9.9741C49.3764 9.9741 49.0571 10.1068 48.7751 10.3722C48.5013 10.6294 48.3313 11.0027 48.2649 11.492ZM55.6191 15.2745C54.9141 15.2745 54.4122 15.0712 54.1136 14.6648C53.8233 14.2501 53.6781 13.715 53.6781 13.0598V10.1483H52.8072V9.07826L53.7528 9.01605L53.927 7.34881H55.1214V9.01605H56.6767V10.1483H55.1214V13.0598C55.1214 13.7731 55.4076 14.1298 55.9799 14.1298C56.0878 14.1298 56.1997 14.1173 56.3159 14.0925C56.432 14.0593 56.5315 14.0261 56.6145 13.9929L56.8633 15.0505C56.6974 15.1086 56.5066 15.1583 56.291 15.1998C56.0836 15.2496 55.8597 15.2745 55.6191 15.2745ZM62.9167 15.2745C61.4361 15.2745 60.1172 14.1173 60.1172 12.1142C60.1172 10.0861 61.4361 8.92896 62.9167 8.92896C64.3973 8.92896 65.7162 10.0861 65.7162 12.1142C65.7162 14.1173 64.3973 15.2745 62.9167 15.2745ZM62.9167 14.4284C63.9619 14.4284 64.6586 13.4952 64.6586 12.1142C64.6586 10.7206 63.9619 9.77503 62.9167 9.77503C61.884 9.77503 61.1748 10.7206 61.1748 12.1142C61.1748 13.4952 61.884 14.4284 62.9167 14.4284ZM67.3087 15.1252V9.07826H68.1548L68.2419 9.94922H68.2792C68.8515 9.37688 69.4736 8.92896 70.3073 8.92896C71.5764 8.92896 72.1487 9.75014 72.1487 11.293V15.1252H71.1285V11.4298C71.1285 10.2976 70.7801 9.81235 69.9838 9.81235C69.3617 9.81235 68.9386 10.1358 68.329 10.7455V15.1252H67.3087Z" fill="#2C3236"/>
<g filter="url(#filter0_d_619_438)">
<path d="M90.9301 15.1772C91.0502 15.5247 91.0214 15.8947 90.8613 16.2164C90.746 16.4513 90.5811 16.633 90.3794 16.7955C90.136 16.9886 89.8334 17.1526 89.4684 17.3103C89.0329 17.4969 88.5013 17.6722 88.2579 17.7366C87.6351 17.899 87.0363 18.002 86.4295 18.0068C85.5617 18.0149 84.814 17.809 84.2824 17.2829C84.0071 17.3167 83.7285 17.336 83.4483 17.336C83.1825 17.336 82.9199 17.3199 82.6589 17.2878C82.1258 17.8106 81.3813 18.0149 80.5167 18.0068C79.9099 18.002 79.3111 17.899 78.6867 17.7366C78.4449 17.6722 77.9133 17.4969 77.4778 17.3103C77.1128 17.1526 76.8102 16.9886 76.5684 16.7955C76.3651 16.633 76.2002 16.4513 76.0849 16.2164C75.9264 15.8947 75.896 15.5247 76.0176 15.1772C75.9056 14.9118 75.8767 14.6078 75.9648 14.2715C76.0048 14.1187 76.0705 13.9772 76.1537 13.8517C76.1361 13.7857 76.1217 13.7182 76.1121 13.6442C76.0513 13.2034 76.2034 12.8012 76.49 12.4892C76.6309 12.3331 76.783 12.2254 76.9415 12.1562C76.8246 11.6575 76.7637 11.1443 76.7637 10.6199C76.7637 6.91038 79.7562 3.90382 83.4483 3.90382C84.7163 3.90382 85.9027 4.25772 86.9146 4.87544C87.0971 4.98805 87.2765 5.1087 87.4478 5.23739C87.5326 5.30173 87.6175 5.36769 87.6992 5.43686C87.7824 5.50442 87.8641 5.5752 87.9425 5.64759C88.1795 5.86476 88.402 6.09801 88.6054 6.34735C88.6742 6.4294 88.7399 6.51465 88.8039 6.60152C88.9336 6.77365 89.0537 6.95221 89.1641 7.1372C89.3323 7.41389 89.4796 7.70344 89.6076 8.00426C89.6925 8.20534 89.7662 8.41125 89.8318 8.62198C89.9295 8.93728 90.0047 9.26222 90.056 9.59682C90.072 9.70782 90.0864 9.82042 90.0976 9.93303C90.12 10.1582 90.1328 10.3867 90.1328 10.6199C90.1328 11.1379 90.072 11.6462 89.9583 12.1369C90.1344 12.206 90.3009 12.3187 90.4562 12.4892C90.7428 12.8012 90.8949 13.205 90.8341 13.6458C90.8245 13.7182 90.8101 13.7857 90.7925 13.8517C90.8757 13.9772 90.9414 14.1187 90.9814 14.2715C91.0694 14.6078 91.0406 14.9118 90.9301 15.1772Z" fill="white"/>
<path d="M83.3982 16.21C86.471 16.21 88.962 13.7072 88.962 10.6199C88.962 7.53263 86.471 5.02988 83.3982 5.02988C80.3255 5.02988 77.8345 7.53263 77.8345 10.6199C77.8345 13.7072 80.3255 16.21 83.3982 16.21Z" fill="#FFD21E"/>
<path d="M88.9618 10.6199C88.9618 7.53265 86.4708 5.0299 83.3981 5.0299C80.3253 5.0299 77.8343 7.53265 77.8343 10.6199C77.8343 13.7072 80.3253 16.21 83.3981 16.21C86.4708 16.21 88.9618 13.7072 88.9618 10.6199ZM77.1938 10.6199C77.1938 7.17728 79.9716 4.38644 83.3981 4.38644C86.8245 4.38644 89.6023 7.17728 89.6023 10.6199C89.6023 14.0626 86.8245 16.8535 83.3981 16.8535C79.9716 16.8535 77.1938 14.0626 77.1938 10.6199Z" fill="#FF9D00"/>
<path d="M85.2059 9.09836C85.41 9.17075 85.4911 9.59221 85.6973 9.4821C86.0876 9.27355 86.2358 8.78653 86.0283 8.39432C85.8207 8.0021 85.336 7.8532 84.9456 8.06175C84.5552 8.27029 84.407 8.75731 84.6146 9.14953C84.7126 9.33465 85.0235 9.03365 85.2059 9.09836Z" fill="#32343D"/>
<path d="M81.4337 9.09836C81.2297 9.17075 81.1485 9.59221 80.9424 9.4821C80.552 9.27355 80.4038 8.78653 80.6114 8.39432C80.8189 8.0021 81.3037 7.8532 81.694 8.06175C82.0844 8.27029 82.2326 8.75731 82.025 9.14953C81.9271 9.33465 81.6161 9.03365 81.4337 9.09836Z" fill="#32343D"/>
<path d="M83.3583 12.9587C84.9319 12.9587 85.4397 11.5491 85.4397 10.8252C85.4397 10.449 85.188 10.5674 84.7848 10.768C84.4123 10.9533 83.9104 11.2087 83.3583 11.2087C82.2087 11.2087 81.2769 10.1013 81.2769 10.8252C81.2769 11.5491 81.7846 12.9587 83.3583 12.9587Z" fill="#32343D"/>
<mask id="mask0_619_438" style="mask-type:alpha" maskUnits="userSpaceOnUse" x="81" y="10" width="5" height="3">
<path d="M83.3583 12.9587C84.9319 12.9587 85.4397 11.5491 85.4397 10.8252C85.4397 10.449 85.188 10.5674 84.7848 10.768C84.4123 10.9533 83.9104 11.2087 83.3583 11.2087C82.2087 11.2087 81.2769 10.1013 81.2769 10.8252C81.2769 11.5491 81.7846 12.9587 83.3583 12.9587Z" fill="white"/>
</mask>
<g mask="url(#mask0_619_438)">
<path d="M83.3979 14.6013C84.1648 14.6013 84.7865 13.9767 84.7865 13.2061C84.7865 12.606 84.4093 12.0943 83.8802 11.8974C83.8607 11.8901 83.841 11.8833 83.8211 11.8769C83.6877 11.8341 83.5455 12.2949 83.3979 12.2949C83.26 12.2949 83.1268 11.8312 83.001 11.8688C82.4275 12.0403 82.0093 12.5742 82.0093 13.2061C82.0093 13.9767 82.631 14.6013 83.3979 14.6013Z" fill="#FF323D"/>
</g>
<g style="mix-blend-mode:multiply">
<path d="M87.1605 9.85584C87.4479 9.85584 87.6808 9.62177 87.6808 9.33303C87.6808 9.04429 87.4479 8.81022 87.1605 8.81022C86.8731 8.81022 86.6401 9.04429 86.6401 9.33303C86.6401 9.62177 86.8731 9.85584 87.1605 9.85584Z" fill="#FFD21E"/>
</g>
<g style="mix-blend-mode:multiply">
<path d="M79.7152 9.85584C80.0026 9.85584 80.2355 9.62177 80.2355 9.33303C80.2355 9.04429 80.0026 8.81022 79.7152 8.81022C79.4278 8.81022 79.1948 9.04429 79.1948 9.33303C79.1948 9.62177 79.4278 9.85584 79.7152 9.85584Z" fill="#FFD21E"/>
</g>
<path d="M78.6445 11.6254C78.3853 11.6254 78.1536 11.7323 77.9921 11.9263C77.8922 12.0465 77.7878 12.2402 77.7793 12.5302C77.6706 12.4988 77.566 12.4813 77.4683 12.4813C77.2202 12.4813 76.996 12.5769 76.8375 12.7504C76.6339 12.9732 76.5434 13.247 76.5828 13.521C76.6015 13.6514 76.6449 13.7684 76.7098 13.8767C76.573 13.9878 76.4723 14.1426 76.4236 14.3287C76.3855 14.4746 76.3465 14.7785 76.5504 15.0915C76.5375 15.1119 76.5253 15.1332 76.5139 15.1549C76.3913 15.3888 76.3835 15.6531 76.4917 15.8992C76.6558 16.2722 77.0636 16.5661 77.8555 16.8816C78.3481 17.0779 78.7988 17.2033 78.8028 17.2045C79.4542 17.3742 80.0432 17.4604 80.5532 17.4604C81.4904 17.4604 82.1614 17.172 82.5476 16.6031C83.1692 15.6872 83.0803 14.8494 82.2761 14.0419C81.831 13.595 81.5351 12.9361 81.4735 12.7915C81.3492 12.3632 81.0207 11.8872 80.4745 11.8872H80.4744C80.4284 11.8872 80.382 11.8909 80.3362 11.8982C80.097 11.936 79.8879 12.0743 79.7385 12.2825C79.5773 12.0811 79.4207 11.9209 79.279 11.8305C79.0654 11.6944 78.852 11.6254 78.6445 11.6254ZM78.6445 12.2688C78.7262 12.2688 78.8259 12.3037 78.9359 12.3739C79.2774 12.5915 79.9364 13.7296 80.1777 14.1723C80.2586 14.3206 80.3967 14.3834 80.5211 14.3834C80.768 14.3834 80.9608 14.1368 80.5437 13.8234C79.9166 13.3519 80.1366 12.5812 80.436 12.5338C80.4491 12.5317 80.4621 12.5307 80.4745 12.5307C80.7467 12.5307 80.8668 13.002 80.8668 13.002C80.8668 13.002 81.2187 13.89 81.8233 14.4969C82.4279 15.104 82.4591 15.5913 82.0185 16.2406C81.7179 16.6833 81.1427 16.8169 80.5532 16.8169C79.9417 16.8169 79.3149 16.6731 78.9636 16.5816C78.9463 16.5771 76.81 15.9708 77.0806 15.4547C77.126 15.368 77.201 15.3333 77.2953 15.3333C77.6763 15.3333 78.3694 15.9031 78.6674 15.9031C78.734 15.9031 78.7809 15.8746 78.8001 15.8051C78.9271 15.3474 76.8697 15.155 77.0431 14.4921C77.0737 14.3749 77.1566 14.3272 77.2732 14.3274C77.7767 14.3274 78.9064 15.2171 79.1432 15.2171C79.1613 15.2171 79.1743 15.2118 79.1813 15.2006C79.3 15.0082 79.235 14.8739 78.3987 14.3654C77.5625 13.8567 76.9755 13.5507 77.3094 13.1856C77.3478 13.1434 77.4022 13.1248 77.4683 13.1248C77.976 13.1249 79.1756 14.2217 79.1756 14.2217C79.1756 14.2217 79.4993 14.56 79.6951 14.56C79.7401 14.56 79.7784 14.5421 79.8043 14.4981C79.9431 14.2629 78.515 13.1754 78.4344 12.7268C78.3798 12.4228 78.4727 12.2688 78.6445 12.2688Z" fill="#FF9D00"/>
<path d="M82.0185 16.2405C82.4591 15.5913 82.4278 15.104 81.8233 14.4969C81.2187 13.89 80.8668 13.002 80.8668 13.002C80.8668 13.002 80.7353 12.4863 80.4359 12.5337C80.1365 12.5812 79.9167 13.3519 80.5439 13.8234C81.171 14.2947 80.419 14.615 80.1777 14.1723C79.9364 13.7296 79.2776 12.5915 78.9359 12.3738C78.5944 12.1562 78.3539 12.2781 78.4344 12.7268C78.515 13.1754 79.9433 14.2629 79.8043 14.4982C79.6653 14.7334 79.1756 14.2217 79.1756 14.2217C79.1756 14.2217 77.643 12.8204 77.3093 13.1856C76.9757 13.5507 77.5625 13.8567 78.3987 14.3653C79.2351 14.8738 79.3 15.0082 79.1813 15.2006C79.0625 15.393 77.2165 13.8292 77.0431 14.4921C76.8698 15.155 78.9271 15.3474 78.8001 15.8051C78.6731 16.2629 77.351 14.9388 77.0805 15.4547C76.81 15.9708 78.9463 16.5771 78.9636 16.5816C79.6536 16.7614 81.4062 17.1425 82.0185 16.2405Z" fill="#FFD21E"/>
<path d="M88.232 11.6254C88.4912 11.6254 88.7229 11.7323 88.8844 11.9263C88.9843 12.0465 89.0887 12.2402 89.0972 12.5302C89.2059 12.4988 89.3105 12.4813 89.4081 12.4813C89.6563 12.4813 89.8804 12.5769 90.0389 12.7504C90.2426 12.9732 90.3331 13.247 90.2937 13.521C90.2749 13.6514 90.2316 13.7684 90.1667 13.8767C90.3034 13.9878 90.4042 14.1426 90.4528 14.3287C90.4909 14.4746 90.53 14.7785 90.326 15.0915C90.339 15.1119 90.3512 15.1332 90.3625 15.1549C90.4852 15.3888 90.493 15.6531 90.3848 15.8992C90.2207 16.2722 89.8129 16.5661 89.021 16.8816C88.5283 17.0779 88.0776 17.2033 88.0736 17.2045C87.4223 17.3742 86.8333 17.4604 86.3233 17.4604C85.386 17.4604 84.715 17.172 84.3288 16.6031C83.7073 15.6872 83.7962 14.8494 84.6004 14.0419C85.0455 13.595 85.3414 12.9361 85.403 12.7915C85.5273 12.3632 85.8558 11.8872 86.4019 11.8872H86.4021C86.448 11.8872 86.4945 11.8909 86.5403 11.8982C86.7795 11.936 86.9886 12.0743 87.1379 12.2825C87.2992 12.0811 87.4558 11.9209 87.5975 11.8305C87.811 11.6944 88.0245 11.6254 88.232 11.6254ZM88.232 12.2688C88.1503 12.2688 88.0506 12.3037 87.9406 12.3739C87.5991 12.5915 86.94 13.7296 86.6988 14.1723C86.6179 14.3206 86.4797 14.3834 86.3553 14.3834C86.1084 14.3834 85.9157 14.1368 86.3328 13.8234C86.9599 13.3519 86.7399 12.5812 86.4405 12.5338C86.4274 12.5317 86.4144 12.5307 86.4019 12.5307C86.1297 12.5307 86.0097 13.002 86.0097 13.002C86.0097 13.002 85.6577 13.89 85.0532 14.4969C84.4486 15.104 84.4174 15.5913 84.858 16.2406C85.1585 16.6833 85.7338 16.8169 86.3233 16.8169C86.9348 16.8169 87.5616 16.6731 87.9129 16.5816C87.9302 16.5771 90.0665 15.9708 89.7959 15.4547C89.7504 15.368 89.6755 15.3333 89.5812 15.3333C89.2001 15.3333 88.507 15.9031 88.2091 15.9031C88.1425 15.9031 88.0955 15.8746 88.0763 15.8051C87.9494 15.3474 90.0068 15.155 89.8334 14.4921C89.8028 14.3749 89.7198 14.3272 89.6033 14.3274C89.0997 14.3274 87.97 15.2171 87.7332 15.2171C87.7151 15.2171 87.7022 15.2118 87.6951 15.2006C87.5765 15.0082 87.6415 14.8739 88.4777 14.3654C89.314 13.8567 89.9009 13.5507 89.5671 13.1856C89.5287 13.1434 89.4742 13.1248 89.4081 13.1248C88.9004 13.1249 87.7009 14.2217 87.7009 14.2217C87.7009 14.2217 87.3771 14.56 87.1813 14.56C87.1363 14.56 87.0981 14.5421 87.0721 14.4981C86.9333 14.2629 88.3615 13.1754 88.442 12.7268C88.4966 12.4228 88.4038 12.2688 88.232 12.2688Z" fill="#FF9D00"/>
<path d="M84.8575 16.2405C84.4169 15.5913 84.4481 15.104 85.0527 14.4969C85.6573 13.89 86.0092 13.002 86.0092 13.002C86.0092 13.002 86.1406 12.4863 86.44 12.5337C86.7394 12.5812 86.9593 13.3519 86.3321 13.8234C85.705 14.2947 86.457 14.615 86.6983 14.1723C86.9396 13.7296 87.5984 12.5915 87.9401 12.3738C88.2816 12.1562 88.5221 12.2781 88.4416 12.7268C88.361 13.1754 86.9327 14.2629 87.0717 14.4982C87.2106 14.7334 87.7004 14.2217 87.7004 14.2217C87.7004 14.2217 89.233 12.8204 89.5666 13.1856C89.9003 13.5507 89.3135 13.8567 88.4773 14.3653C87.6409 14.8738 87.576 15.0082 87.6946 15.2006C87.8134 15.393 89.6595 13.8292 89.8329 14.4921C90.0061 15.155 87.9489 15.3474 88.0759 15.8051C88.2028 16.2629 89.525 14.9388 89.7954 15.4547C90.066 15.9708 87.9297 16.5771 87.9124 16.5816C87.2223 16.7614 85.4698 17.1425 84.8575 16.2405Z" fill="#FFD21E"/>
</g>
<defs>
<filter id="filter0_d_619_438" x="70.8348" y="-0.00257158" width="25.2767" height="24.2599" filterUnits="userSpaceOnUse" color-interpolation-filters="sRGB">
<feFlood flood-opacity="0" result="BackgroundImageFix"/>
<feColorMatrix in="SourceAlpha" type="matrix" values="0 0 0 0 0 0 0 0 0 0 0 0 0 0 0 0 0 0 127 0" result="hardAlpha"/>
<feOffset dy="1.17192"/>
<feGaussianBlur stdDeviation="2.53915"/>
<feColorMatrix type="matrix" values="0 0 0 0 0 0 0 0 0 0 0 0 0 0 0 0 0 0 0.1 0"/>
<feBlend mode="normal" in2="BackgroundImageFix" result="effect1_dropShadow_619_438"/>
<feBlend mode="normal" in="SourceGraphic" in2="effect1_dropShadow_619_438" result="shape"/>
</filter>
<linearGradient id="paint0_linear_619_438" x1="0.805176" y1="11" x2="71.5545" y2="11" gradientUnits="userSpaceOnUse">
<stop stop-color="#F5F9FA"/>
<stop offset="1" stop-color="white"/>
</linearGradient>
</defs>
</svg>
